# xmcd
#
# Track frame offsets:
#	150
#	39914
#	66803
#	105615
#	130827
#	155352
#	189375
#	224759
#	247317
#
# Disc length: 3758 seconds
# Revision: 0
# Processed by: cddbd v1.5.2PL0 Copyright (c) Steve Scherf et al.
# Submitted via: dBpowerAMP V12.0
#
DISCID=810eac09
DTITLE=Akin Eldes - Cango
DYEAR=2007
DGENRE=Blues
TTITLE0=Cango
TTITLE1=1980
TTITLE2=Bunun yuzunden
TTITLE3=Eylul - Telvin
TTITLE4=Yeni bir Funk
TTITLE5=Cok sevdim
TTITLE6=Longa
TTITLE7=Mavi
TTITLE8=Cig
EXTD=
EXTT0=
EXTT1=
EXTT2=
EXTT3=
EXTT4=
EXTT5=
EXTT6=
EXTT7=
EXTT8=
PLAYORDER=
